HIERARCHY
ROOT hips
{
  OFFSET 0 11.86390953 0.3628582958
  CHANNELS 6 Xposition Yposition Zposition Yrotation Xrotation Zrotation
  JOINT spine
  {
    OFFSET 0 0.05383551117999996 0
    CHANNELS 3 Yrotation Xrotation Zrotation
    JOINT chest
    {
      OFFSET 0 0.6394558760401424 0
      CHANNELS 3 Yrotation Xrotation Zrotation
      JOINT neck
      {
        OFFSET 0 2.720089088562982 0
        CHANNELS 3 Yrotation Xrotation Zrotation
        JOINT head
        {
          OFFSET 0 0.37880844870545777 0
          CHANNELS 3 Yrotation Xrotation Zrotation
          JOINT rightEye
          {
            OFFSET -0.42867780714 0.7547055649100001 0.7381831347
            CHANNELS 3 Yrotation Xrotation Zrotation
            End Site
            {
              OFFSET -0.42867780714 0.7547055649100001 0.7381831347
            }
          }
          JOINT leftEye
          {
            OFFSET 0.428676479 0.7547055559999993 0.7381844503
            CHANNELS 3 Yrotation Xrotation Zrotation
            End Site
            {
              OFFSET 0.428676479 0.7547055559999993 0.7381844503
            }
          }
          JOINT jaw
          {
            OFFSET -0.18933892286100001 1.5626303011000007 1.137441874206
            CHANNELS 3 Yrotation Xrotation Zrotation
            End Site
            {
              OFFSET -0.18933892286100001 1.5626303011000007 1.137441874206
            }
          }
        }
      }
      JOINT rightShoulder
      {
        OFFSET -0.6795351508 2.0665205 0
        CHANNELS 3 Yrotation Xrotation Zrotation
        JOINT rightUpperArm
        {
          OFFSET -0.7287400483531672 0 0
          CHANNELS 3 Yrotation Xrotation Zrotation
          JOINT rightLowerArm
          {
            OFFSET -1.9872982039174532 0 0
            CHANNELS 3 Yrotation Xrotation Zrotation
            JOINT rightHand
            {
              OFFSET -2.6451847532219275 0 0
              CHANNELS 3 Yrotation Xrotation Zrotation
              JOINT rightLittleProximal
              {
                OFFSET -0.8008804099999995 -0.09592044000000044 -0.26183688629999996
                CHANNELS 3 Yrotation Xrotation Zrotation
                JOINT rightLittleIntermediate
                {
                  OFFSET -0.2473955153999997 -0.02541697026000067 0.002370178700999967
                  CHANNELS 3 Yrotation Xrotation Zrotation
                  JOINT rightLittleDistal
                  {
                    OFFSET -0.163687229200001 -0.015790700860001117 -0.0004274845300000635
                    CHANNELS 3 Yrotation Xrotation Zrotation
                    End Site
                    {
                      OFFSET -0.163687229200001 -0.015790700860001117 -0.0004274845300000635
                    }
                  }
                }
              }
              JOINT rightRingProximal
              {
                OFFSET -0.8393382799999985 -0.06223833561000025 -0.09213143500000005
                CHANNELS 3 Yrotation Xrotation Zrotation
                JOINT rightRingIntermediate
                {
                  OFFSET -0.3284497260000011 -0.03264224524000103 0.009408593183000052
                  CHANNELS 3 Yrotation Xrotation Zrotation
                  JOINT rightRingDistal
                  {
                    OFFSET -0.19447660429999902 -0.021730899850000318 0.003074347969000052
                    CHANNELS 3 Yrotation Xrotation Zrotation
                    End Site
                    {
                      OFFSET -0.19447660429999902 -0.021730899850000318 0.003074347969000052
                    }
                  }
                }
              }
              JOINT rightMiddleProximal
              {
                OFFSET -0.8473005199999989 -0.06735503500000095 0.10541820299999995
                CHANNELS 3 Yrotation Xrotation Zrotation
                JOINT rightMiddleIntermediate
                {
                  OFFSET -0.3450455799999995 -0.02481901642000084 0.019012570390000032
                  CHANNELS 3 Yrotation Xrotation Zrotation
                  JOINT rightMiddleDistal
                  {
                    OFFSET -0.23542332000000088 -0.025003910029999243 0.0075583457949999905
                    CHANNELS 3 Yrotation Xrotation Zrotation
                    End Site
                    {
                      OFFSET -0.23542332000000088 -0.025003910029999243 0.0075583457949999905
                    }
                  }
                }
              }
              JOINT rightIndexProximal
              {
                OFFSET -0.8008568281999987 -0.09897839600000169 0.29462796
                CHANNELS 3 Yrotation Xrotation Zrotation
                JOINT rightIndexIntermediate
                {
                  OFFSET -0.30524754480000016 -0.024634122809999992 0.02743375304999998
                  CHANNELS 3 Yrotation Xrotation Zrotation
                  JOINT rightIndexDistal
                  {
                    OFFSET -0.23067378950000017 -0.016876459159999913 0.008484125099999983
                    CHANNELS 3 Yrotation Xrotation Zrotation
                    End Site
                    {
                      OFFSET -0.23067378950000017 -0.016876459159999913 0.008484125099999983
                    }
                  }
                }
              }
              JOINT rightThumbProximal
              {
                OFFSET -0.25574064999999935 -0.12833189930000155 0.22385698609999993
                CHANNELS 3 Yrotation Xrotation Zrotation
                JOINT rightThumbIntermediate
                {
                  OFFSET -0.22791743260000086 -0.07103586192999978 0.27385039
                  CHANNELS 3 Yrotation Xrotation Zrotation
                  JOINT rightThumbDistal
                  {
                    OFFSET -0.13610267659999975 -0.03369390969999997 0.14246511509999996
                    CHANNELS 3 Yrotation Xrotation Zrotation
                    End Site
                    {
                      OFFSET -0.13610267659999975 -0.03369390969999997 0.14246511509999996
                    }
                  }
                }
              }
            }
          }
        }
      }
      JOINT leftShoulder
      {
        OFFSET 0.6795338396 2.0665205 0
        CHANNELS 3 Yrotation Xrotation Zrotation
        JOINT leftUpperArm
        {
          OFFSET 0.7287383950230443 0 0
          CHANNELS 3 Yrotation Xrotation Zrotation
          JOINT leftLowerArm
          {
            OFFSET 1.9872997282019604 0 0
            CHANNELS 3 Yrotation Xrotation Zrotation
            JOINT leftHand
            {
              OFFSET 2.6451820781302327 0 0
              CHANNELS 3 Yrotation Xrotation Zrotation
              JOINT leftLittleProximal
              {
                OFFSET 0.8008804099999995 -0.09592306899999814 -0.2618342639000001
                CHANNELS 3 Yrotation Xrotation Zrotation
                JOINT leftLittleIntermediate
                {
                  OFFSET 0.2473981400000007 -0.02542352681000093 0.0023609995859999455
                  CHANNELS 3 Yrotation Xrotation Zrotation
                  JOINT leftLittleDistal
                  {
                    OFFSET 0.1636846068000002 -0.015794634789999318 -0.00043272972159996703
                    CHANNELS 3 Yrotation Xrotation Zrotation
                    End Site
                    {
                      OFFSET 0.1636846068000002 -0.015794634789999318 -0.00043272972159996703
                    }
                  }
                }
              }
              JOINT leftRingProximal
              {
                OFFSET 0.8393409199999996 -0.062242267999998324 -0.0921281570000001
                CHANNELS 3 Yrotation Xrotation Zrotation
                JOINT leftRingIntermediate
                {
                  OFFSET 0.3284471036000003 -0.03264224524000103 0.009405970574000042
                  CHANNELS 3 Yrotation Xrotation Zrotation
                  JOINT leftRingDistal
                  {
                    OFFSET 0.1944779099999996 -0.021732211159998904 0.003073036670000001
                    CHANNELS 3 Yrotation Xrotation Zrotation
                    End Site
                    {
                      OFFSET 0.1944779099999996 -0.021732211159998904 0.003073036670000001
                    }
                  }
                }
              }
              JOINT leftMiddleProximal
              {
                OFFSET 0.8473005200000001 -0.06736028199999788 0.1054214809999999
                CHANNELS 3 Yrotation Xrotation Zrotation
                JOINT leftMiddleIntermediate
                {
                  OFFSET 0.3450455799999995 -0.024824261000000014 0.019013225990000007
                  CHANNELS 3 Yrotation Xrotation Zrotation
                  JOINT leftMiddleDistal
                  {
                    OFFSET 0.2354259489999998 -0.025005222000000327 0.0075590014499999705
                    CHANNELS 3 Yrotation Xrotation Zrotation
                    End Site
                    {
                      OFFSET 0.2354259489999998 -0.025005222000000327 0.0075590014499999705
                    }
                  }
                }
              }
              JOINT leftIndexProximal
              {
                OFFSET 0.8008594516999996 -0.09898495199999946 0.29463124239999994
                CHANNELS 3 Yrotation Xrotation Zrotation
                JOINT leftIndexIntermediate
                {
                  OFFSET 0.30524754480000016 -0.024632811499998963 0.02743047472
                  CHANNELS 3 Yrotation Xrotation Zrotation
                  JOINT leftIndexDistal
                  {
                    OFFSET 0.23067378950000017 -0.016876459159999913 0.008481502700000004
                    CHANNELS 3 Yrotation Xrotation Zrotation
                    End Site
                    {
                      OFFSET 0.23067378950000017 -0.016876459159999913 0.008481502700000004
                    }
                  }
                }
              }
              JOINT leftThumbProximal
              {
                OFFSET 0.25574326469999953 -0.12833321050000013 0.22385764169999997
                CHANNELS 3 Yrotation Xrotation Zrotation
                JOINT leftThumbIntermediate
                {
                  OFFSET 0.22804987480000094 -0.07138466829999968 0.273648441
                  CHANNELS 3 Yrotation Xrotation Zrotation
                  JOINT leftThumbDistal
                  {
                    OFFSET 0.13614857189999907 -0.033867001519998885 0.14238119169999996
                    CHANNELS 3 Yrotation Xrotation Zrotation
                    End Site
                    {
                      OFFSET 0.13614857189999907 -0.033867001519998885 0.14238119169999996
                    }
                  }
                }
              }
            }
          }
        }
      }
    }
  }
  JOINT rightUpperLeg
  {
    OFFSET -0.9749898906000001 -1.8495733739999998 0
    CHANNELS 3 Yrotation Xrotation Zrotation
    JOINT rightLowerLeg
    {
      OFFSET 0 -4.1566544686813165 0
      CHANNELS 3 Yrotation Xrotation Zrotation
      JOINT rightFoot
      {
        OFFSET 0.14539718599999998 -4.225553926 -0.3666210900000001
        CHANNELS 3 Yrotation Xrotation Zrotation
        JOINT rightToes
        {
          OFFSET 0.1706738473 -0.9584117400000015 1.0093348617
          CHANNELS 3 Yrotation Xrotation Zrotation
          End Site
          {
            OFFSET 0.1706738473 -0.9584117400000015 1.0093348617
          }
        }
      }
    }
  }
  JOINT leftUpperLeg
  {
    OFFSET 0.9749898906000001 -1.8495733739999998 0
    CHANNELS 3 Yrotation Xrotation Zrotation
    JOINT leftLowerLeg
    {
      OFFSET 0 -4.156653488267941 0
      CHANNELS 3 Yrotation Xrotation Zrotation
      JOINT leftFoot
      {
        OFFSET -0.14537357999999995 -4.225555399999999 -0.36661124279999996
        CHANNELS 3 Yrotation Xrotation Zrotation
        JOINT leftToes
        {
          OFFSET -0.17066467000000002 -0.9584157000000019 1.0093348617
          CHANNELS 3 Yrotation Xrotation Zrotation
          End Site
          {
            OFFSET -0.17066467000000002 -0.9584157000000019 1.0093348617
          }
        }
      }
    }
  }
}
MOTION
Frames: 4
Frame Time: 0.03333333333333333
0.21292853355407715 -0.18617706234863363 -1.4331905841827393 3.604760055275572 -1.7678568253405706 -0.5024826380781218 1.1033559749213422 3.964937758617697 3.6621296178699323 -1.0106815877772621 3.961066028897026 6.687729197262663 7.567211524383528 15.99941040476014 6.56991152585361 38.907860077537336 3.6565538271853644 12.25269818998523 0 0 0 0 0 0 0 0 0 13.99684853546436 1.1277689625659366 15.082094314640294 -9.261828496245629 -20.7164812021677 53.413978405201306 34.41893308983677 0.12960508446239 -0.41835925987260314 13.935247727040663 -7.6170427206717015 -27.08588735296798 -5.966002856525173 1.1367077969491093 22.277168489115414 -0.8039859153204669 0.06808593634233458 13.211599114866548 -0.8932024792986053 0.06853724274652918 12.273520657443198 -3.396812839562064 0.1756668442938505 8.87974865174974 -1.0101113275582634 0.12753201010821252 14.538470046914284 -0.7937400167386803 0.08264126218692892 11.48520601555185 0.44987954738244346 0.1751898627343102 -2.6549962446784687 -0.5956170959790917 0.054529793971302566 10.16266465805164 -0.7979597337771108 0.07393332314700896 11.183943786013977 6.3546502609765945 2.1248513163333613 -13.93780232270514 -0.82430303000051 0.09163214274881563 12.560914746493316 -0.22936781757174132 0.006114144899256155 3.203796275514253 3.233463044091893 -4.001309285112153 -2.849684211412974 -24.234799281689845 8.93328252051538 -20.24350840796376 -2.355662332822944 -15.940383722287214 -11.738430553316915 -18.3138106586307 1.4877700060993 -9.137593388539228 28.066150630457397 -26.137685125378553 -70.48813712194875 -26.16954715944108 0.0758264744429066 0.3264062275895059 -19.979075840553687 -25.338527507117725 24.891310407704633 5.637158888410478 1.0934571440415821 -29.228728238569097 1.4599351486776433 0.2834497912439251 -16.93653628260376 1.3999284021059173 0.2552035784273731 -16.031875719583713 3.2283163025254304 0.0840666921586588 -18.008315394145626 1.7472900325553156 0.3073046774916318 -19.932693120765606 1.4854500318642156 0.22020580093308298 -16.84837378837888 1.3285938710372343 0.10592155342449705 2.557560055930674 1.304082161183944 0.16774815154049325 -14.713213775319387 1.391051695187824 0.19204662944567558 -15.721414632257467 -7.356046829710982 1.3908172072426241 7.591019640101241 1.3993288388781018 0.1933187993930002 -15.708860869601411 0.569450010987065 0.03251674813043205 -6.465126258006473 0.6489582296655307 1.342305116105951 1.1896133534103426 25.22418509017643 10.535985798786076 21.574139171317814 3.233245565427754 -13.874998940170371 8.148551024224673 -9.401594036784147 -12.029768900433378 2.6139650446402594 -10.253610977615955 11.766292428218925 -8.677292232926492 -11.380934668865507 2.316617240755501 3.897146003176804 0.000018709933301838048 -7.655856283975759 -0.000005546417252423555 10.31799518094782 -2.183899700819118 1.64900729883558 10.34846389036848 15.297310393486281 1.948448341142594 15.39563333332949 -10.40981782227305 -5.812211368319476 -0.000008796923245804953 -1.0440006375469888 0.0000014845766017621957
0.1772177815437317 -0.18598632748535238 -1.4103459119796753 3.5934415420260954 -1.9367357530327407 -0.5578636722052795 1.1008535773375798 3.9494543715846335 3.6004021017441667 -1.0113660150734451 3.9248229276653896 6.523333200217735 7.404558590646747 15.958070009255705 6.500483184823177 38.140029841475844 3.8915606763356485 12.159587141201804 0 0 0 0 0 0 0 0 0 14.272475301544597 1.0959501912269205 15.255445992469745 -6.6426239175989386 -19.399777124900574 52.92534265327956 27.79060076566324 0.08537091287033931 -0.3450665630818137 14.089605515483662 -11.65337876222891 -24.533605357178498 -5.961457471587211 0.961576118096016 19.313599123390656 -0.8173355124991133 0.0706978719658821 13.410151123701242 -0.9072801393484341 0.07123375541219458 12.482717356698366 -3.392506386090584 0.15868632136408972 7.244459207281196 -1.0327102363860021 0.13351256327855687 14.879920496665523 -0.8167991112504102 0.08752620686274667 11.829365450709659 0.24577944036294538 0.24654948569876997 -4.707323384360969 -0.6111716779712135 0.05716013508785872 10.392996912134793 -0.8131699069438278 0.07694942123948371 11.410571534137787 6.059705744391179 2.2908767185877683 -15.366106093641692 -0.83142952681711 0.09321503447831361 12.667516148248739 -0.2365295897411653 0.006526554675373794 3.3087462716369496 3.107649890515323 -4.000809035187082 -2.4307794041241984 -23.660480032634 8.721719682830512 -20.09829412248875 -2.665652606479987 -15.799272356526618 -11.751532793276205 -18.457051485856862 1.4898003248754967 -9.180525665779733 26.3107359635255 -25.6060328208442 -70.22704213709619 -19.614927844818048 0.04291501304771183 0.2484651677421839 -20.14727317183617 -28.361295905158787 23.31874813699272 5.7782083595203915 1.173746904174561 -29.519283378636974 1.461826118266281 0.2841137151190947 -16.958902705240845 1.4015582534732973 0.25571301955350695 -16.05103184824805 3.450458522875718 0.14902054163281117 -18.70560617038508 1.7496604754932288 0.3081754057682427 -19.96101270153436 1.4879707805934732 0.2209775379877014 -16.877846460287934 1.8906018659117905 0.07549043417885154 1.5627605620070937 1.3142051243639592 0.17040309231522766 -14.830163366578441 1.4013405422985892 0.19495301157416028 -15.840858800419142 -6.624470823666832 1.1985274448641972 7.036572903189264 1.4053100567586343 0.19501884590764093 -15.778508629156185 0.5730735146307161 0.03292158031205745 -6.505838357545834 1.5426916920847165 1.440749288735257 1.5298743644465274 25.244817720972556 10.543207621750343 21.575938406451968 3.149736548508312 -13.904088940321188 8.162074519666405 -9.43245375574467 -11.80867620076869 2.7982831920861835 -10.257555570355867 12.004462571606709 -8.636558680705729 -11.418142842854033 1.9799378140320787 3.776219610112472 -0.0000014187604926155244 -7.623239492053827 -0.0000035484877194337135 10.466380700979144 -1.9267449789817186 1.9783454969997336 10.350526957188112 15.265361256736691 1.964310979968846 15.23783286116862 -10.380761684430404 -6.045913207702348 -0.000006649441956316967 -1.026600771574871 5.963155774789749e-7
0.10209716856479645 -0.18597774441650472 -1.3602898120880127 3.563443594638547 -2.2393498498163655 -0.7054851305527867 1.1020659267278607 3.91921672715286 3.4774883583427783 -0.9908896037403667 3.8547759192517623 6.187631225917457 7.020016756299082 15.77238734729126 6.360323333290924 36.3512659009113 4.308997104066505 11.80650736355329 0 0 0 0 0 0 0 0 0 15.019158819184645 1.0153885165590453 15.678735077204822 -0.8932011397883305 -15.180791798532626 51.74310074930768 16.950614175966297 0.032159567199556496 -0.21575759386394006 12.892533678709997 -18.699553304928628 -18.550467086301474 -6.597803398004418 0.4517609698338203 10.408165121742007 -0.8550348252317718 0.07829553003028351 13.971195085852862 -0.9463708315425582 0.07907926829622708 13.064791709228047 -4.063913483585382 0.1204509416431819 2.3603949801966864 -1.086255001598268 0.14825339674982035 15.690670929278452 -0.8716414217002683 0.0997061046203565 12.649531894667247 -0.6595429035880442 0.2743815671282086 -9.99584707540944 -0.6564569034533497 0.06529486169037554 11.064816089276281 -0.857518145537727 0.08613169941238542 12.071689728139482 5.584877400218947 2.7678669679274495 -19.27949237312792 -0.8410997502114653 0.09536713395063558 12.812312223344444 -0.24644822958624013 0.007089508759175679 3.453552757208779 2.191590978575037 -3.523186873916344 -1.9491826580164713 -21.472218359555082 7.903834551818321 -19.57526814645005 -3.9805789592732683 -15.202109253979252 -11.824051245275363 -18.734098255169716 1.4836916524054453 -9.331434221438464 22.53771738504255 -23.807573096888433 -69.68773813742634 -8.496971050551617 0.00809487309345916 0.10935334556097855 -19.289748734738048 -33.79059053888304 19.54926040725948 6.408589423587658 1.550393476642198 -30.778128365629133 1.4688687785790957 0.2865909167149284 -17.042093097379684 1.4071980030785842 0.257589366048295 -16.117418966491456 4.170931194731736 0.39601157135752413 -20.81522003981827 1.7587008504678687 0.31145984096171897 -20.068450457340173 1.4971730997962691 0.22378016447271812 -16.98535446255488 3.346675500819759 0.09169797011520692 -1.6636595830534842 1.336076255784309 0.17623578039007867 -15.083048959424994 1.4238817049958277 0.2014235606285441 -16.102971760598194 -4.812533036624651 0.6603839374610021 4.570757798871922 1.4191912512487825 0.198982340066511 -15.939560739309485 0.5825281555606481 0.03400901798356969 -6.612504061276896 3.725606384027563 1.9612158657665182 2.359997679667497 25.59675023121321 10.666697058791772 21.606679599906514 3.1606662726097814 -13.900182914392342 8.160338321094368 -9.453762167432144 -11.339668633393412 3.2471316218439807 -10.264482956249397 12.41316451400921 -8.580135933940232 -11.534890121788193 1.315865277228338 3.532161431642507 0.00000463068241997853 -7.537359202259542 -0.0000035925267061402496 10.777152401607232 -1.441844172948932 2.690291992841117 10.356062267118539 15.195909134458256 2.0152296985485147 14.91891205428452 -10.320493162088964 -6.552602018904969 0.0000274528381192084 -0.9849372413707018 -6.020163062317067e-7
0.023306701332330704 -0.18643836911132894 -1.3037590980529785 3.56077315775229 -2.469497762605431 -0.8741225717531457 1.119127583636265 3.9038142033227503 3.3589580780189543 -0.9167083250462057 3.81215280691096 5.8602851876401925 6.563831043776488 15.412584881208796 6.172688343048059 34.219074204522514 4.513434869878072 11.19866921513707 0 0 0 0 0 0 0 0 0 15.898572091253126 0.9031874494388716 16.23641889736574 4.335341485471294 -9.321402748858581 51.2207136340505 10.517727191856135 0.01242449189241325 -0.1351242283147708 8.824446058266899 -21.510348434201816 -10.594020344242775 -7.055602424735278 -0.23430274194976344 2.7551065993364148 -0.888959469899979 0.08548538536724436 14.477258834896778 -0.9809763690067024 0.08633820614697012 13.580768300796095 -4.865723832435904 -0.03933245450769377 -1.9939069480930134 -1.1264278284460387 0.15986058482990737 16.30112344076405 -0.9131171812180167 0.10947172394054767 13.271765522254428 -1.6218378445536936 0.09207340421871887 -14.097716172391886 -0.6993981634945607 0.0734771008175221 11.703082324707502 -0.8999548526877879 0.09543131380541364 12.70616699274357 5.072260154938449 2.989924242365863 -21.861410141607674 -0.8483263927794261 0.09699767048971107 12.92030218472539 -0.25383641187879297 0.007548160301254451 3.5615606875501786 1.0022606805471188 -2.816755745780056 -1.7658731113105606 -19.609708531471252 7.194508006788152 -19.168553763193596 -5.230259964422642 -14.636862011966315 -11.917877027009494 -18.85844395357724 1.4555786307206078 -9.573020531749387 19.102999754762976 -21.054897498215777 -69.67105708279401 -1.0988089267294119 0.00013785549664927635 0.014195446510412334 -16.61310559324143 -36.926756233627415 15.643553503380804 6.8351626713978195 1.8283549225727385 -31.729413736558037 1.4759161553492772 0.28906094172043484 -17.12564997730241 1.413250556073109 0.2596207810488254 -16.18858983083121 4.813888480681284 0.6593439188274743 -22.441892560776715 1.769505570502152 0.3154109510745475 -20.197082139585422 1.5080152637592308 0.22710459802303876 -17.112165737246432 4.262288398824166 0.19176268141452965 -4.170666363665383 1.3547301014610962 0.18132250849745848 -15.299106216572248 1.4430849450279972 0.20700299350785709 -16.32654978849828 -3.3030314259351865 0.47154013225358005 2.4587183040186695 1.4304455554041806 0.20221985623610994 -16.07036530771364 0.5926914966233641 0.03519945213795128 -6.7267750269368385 5.55730755964494 2.353826356001496 3.237222439192347 25.909269278523183 10.776588838862805 21.635254106967178 3.266492293180365 -13.86328165105901 8.1432170923509 -9.427033973450362 -10.875081136023553 3.774341680390103 -10.26984066465803 12.756132698957936 -8.573868877119553 -11.735566362843677 0.6557362741599068 3.308342711670228 0.000007393775124920135 -7.431582141066437 -0.0000018661017480257407 11.091024908484046 -0.9931969177691249 3.4339084649063563 10.35994040368026 15.072807865661837 2.0803533406328967 14.576392378666121 -10.241354982281742 -7.092711190580115 0.00002260183760277351 -0.9212648758264043 -0.0000013805381933714734
